Coordinates
version=1
nRows=17
nColumns=36
inDegrees=yes

Units are S.I. units (second, meters, Newtons, ...)
If the header above contains a line with 'inDegrees', this indicates whether rotational values are in degrees (yes) or radians (no).

endheader
time	pelvis_tilt	pelvis_list	pelvis_rotation	pelvis_tx	pelvis_ty	pelvis_tz	hip_flexion_r	hip_adduction_r	hip_rotation_r	knee_angle_r	knee_angle_r_beta	ankle_angle_r	subtalar_angle_r	mtp_angle_r	hip_flexion_l	hip_adduction_l	hip_rotation_l	knee_angle_l	knee_angle_l_beta	ankle_angle_l	subtalar_angle_l	mtp_angle_l	lumbar_extension	lumbar_bending	lumbar_rotation	arm_flex_r	arm_add_r	arm_rot_r	elbow_flex_r	pro_sup_r	arm_flex_l	arm_add_l	arm_rot_l	elbow_flex_l	pro_sup_l
      0.00000000	      1.27074304	     -2.92492887	      1.94197770	     -0.89880059	      1.23162734	     -0.08942841	     -5.35543907	      3.19230719	      0.52394141	      5.50527954	      0.09608525	      5.45892455	     -7.79433555	     -6.07607223	     -5.66152485	     -1.92545575	      1.25276352	      3.34218363	      0.05833211	     10.52335911	     -2.68697050	     -6.07607223	     -7.78435069	      4.12067388	     -1.19443458	      3.08959060	     -6.67377790	     14.28630479	     24.27262822	     78.34933809	      0.43298549	     -4.77498243	     14.56954599	     24.14552133	     70.62440884
      0.00416670	     -1.36380602	     -2.17935295	      2.09834050	     -0.89629838	      1.22831706	     -0.09064366	     -2.02176919	      2.34782470	      1.17033275	      6.34709198	      0.11077765	      8.86975157	     -5.07850435	     -6.20314367	     -2.37766893	     -0.22715061	      3.08652125	      3.77950972	      0.06596489	      9.94069567	     -2.58931631	     -6.20314367	     -3.95647019	      3.43446449	     -1.70444148	      1.85335442	     -5.53469012	      8.94181806	     24.45624057	     78.70255827	     -0.50410581	     -3.64524344	      9.39131339	     23.49208527	     70.88526255
      0.00833330	     -2.41175008	     -1.03610974	      1.77237984	     -0.89589236	      1.22687312	     -0.08925543	     -1.25622365	      1.01257788	      1.16330666	      5.64074671	      0.09844960	      9.30010751	     -4.84532663	     -6.66925997	     -1.65604612	      1.06256645	      2.61937846	      3.38155270	      0.05901923	      9.67737152	     -1.96099068	     -6.66925997	     -2.34606452	      1.86513651	     -1.28809270	      0.81334766	     -4.59485542	      4.18339946	     25.68606866	     80.74855943	     -0.92217380	     -4.02128790	      8.08255600	     23.75371357	     73.38255088
      0.01250000	     -2.21802004	     -0.49051693	      1.79498741	     -0.89653661	      1.22793371	     -0.08829423	     -1.76134350	      0.42444430	      0.55597806	      5.06006960	      0.08831487	     10.33476435	     -2.92414150	     -6.96403585	     -2.47553626	      1.69748506	      2.99235746	      2.49307311	      0.04351233	      9.27677259	     -2.09987047	     -6.96403585	     -2.52652439	      1.11555035	     -1.14146907	      0.44410926	     -4.23588857	      2.23081688	     26.51095267	     83.76714568	     -1.09342118	     -4.46664823	      7.46658710	     24.14731963	     75.60021730
      0.01666670	     -2.11287534	     -0.28537799	      1.82458992	     -0.89615550	      1.22867512	     -0.08809121	     -2.19881500	      0.28118601	      0.58833416	      4.48736083	      0.07831922	     10.53830565	     -2.42676106	     -7.01903452	     -2.94575252	      1.97917085	      3.21340142	      1.93014505	      0.03368739	      9.10388670	     -2.15454810	     -7.01903452	     -2.62447143	      0.84192370	     -1.08965372	      0.35455580	     -4.19047249	      2.59172999	     26.82915270	     82.15316403	     -1.06900730	     -4.70751540	      7.56379993	     24.21470842	     74.48171878
      0.02083330	     -1.85879450	     -0.20449815	      1.91286165	     -0.89529822	      1.23015640	     -0.08818452	     -2.76902739	      0.25721417	      0.63975425	      3.99565353	      0.06973731	     10.45116199	     -2.14808181	     -7.13178949	     -3.43458433	      2.06041222	      3.62986842	      1.62260946	      0.02831988	      8.72742421	     -2.72731483	     -7.13178949	     -2.94268687	      0.70802603	     -1.00181547	      0.24200299	     -4.39322176	      4.09003406	     27.34383447	     80.18976433	     -0.79753584	     -4.92028509	      8.46096416	     24.28207000	     72.95840152
      0.02500000	     -1.67595361	     -0.16886807	      2.00405029	     -0.89488581	      1.23009987	     -0.08782114	     -3.19861457	      0.24718309	      0.69999917	      3.60306465	      0.06288534	     10.23476348	     -2.15813919	     -7.19368959	     -3.74263923	      2.06398908	      3.69995747	      1.49470982	      0.02608761	      8.55657506	     -2.88393892	     -7.19368959	     -3.18207956	      0.61195199	     -0.97187790	      0.25993728	     -4.39192946	      4.62626643	     27.40558555	     78.54568944	     -0.49344960	     -4.95737543	      8.51472148	     24.29122063	     71.68510687
      0.02916670	     -1.59622742	     -0.12784930	      2.05708607	     -0.89626082	      1.22987062	     -0.08811665	     -3.37868868	      0.17595327	      0.66390498	      3.32517871	      0.05803532	     10.08623962	     -2.14287863	     -7.25345279	     -3.81830694	      2.10706668	      4.03495234	      1.46323776	      0.02553832	      8.39747598	     -3.21156310	     -7.25345279	     -3.37501188	      0.52463571	     -0.96580597	      0.32842927	     -4.44417731	      5.44827976	     27.46658367	     76.74760774	     -0.14995577	     -4.95672585	      8.60215530	     24.36292530	     70.25482528
      0.03333330	     -1.44773378	     -0.15182732	      2.11324155	     -0.89426521	      1.23001516	     -0.08759903	     -3.69352272	      0.22312271	      0.66901921	      3.05101931	      0.05325033	      9.82250731	     -2.14366576	     -7.29840897	     -4.03578887	      2.02915889	      4.11766500	      1.41547878	      0.02470477	      8.28582896	     -3.21057941	     -7.29840897	     -3.54543574	      0.50614499	     -0.99981295	      0.39036453	     -4.54774561	      6.33704126	     27.45309786	     75.41007590	      0.07201538	     -4.97251412	      8.68487157	     24.35181070	     69.11119510
      0.03750000	     -1.41006882	     -0.15822658	      2.12121786	     -0.89461223	      1.22958135	     -0.08758388	     -3.79081241	      0.24391933	      0.87462357	      2.92579532	      0.05106476	      9.51173038	     -2.65998934	     -7.34005104	     -4.11004445	      2.00296690	      4.43392192	      1.35622139	      0.02367053	      7.89753582	     -3.75547634	     -7.34005104	     -3.62263630	      0.47179102	     -1.06402319	      0.50057844	     -4.91530525	      8.38386801	     27.57615152	     75.39455281	      0.22116346	     -5.10536321	      9.30919210	     24.43027450	     68.41549403
      0.04166670	     -1.30931746	     -0.16730941	      2.12084740	     -0.89479518	      1.23004605	     -0.08708581	     -3.98355898	      0.29346187	      1.04152026	      2.75349055	      0.04805748	      9.24017511	     -3.00122304	     -7.37904350	     -4.21469111	      1.95757627	      4.38752034	      1.34010056	      0.02338917	      7.85645091	     -3.54892353	     -7.37904350	     -3.76303274	      0.43709805	     -1.08366100	      0.60497507	     -4.92326174	      8.72263592	     27.50975968	     73.64932608	      0.35496751	     -5.10895612	      9.19482414	     24.43110488	     67.08719581
      0.04583330	     -1.28458901	     -0.19012823	      2.18408895	     -0.89480004	      1.22942966	     -0.08700709	     -4.05981476	      0.34220841	      0.84301877	      2.65376958	      0.04631702	      9.24459144	     -2.79391216	     -7.44701840	     -4.23509643	      1.90350621	      4.66117567	      1.31243571	      0.02290632	      7.53426143	     -3.94217217	     -7.44701840	     -3.82685459	      0.44912737	     -1.23225229	      0.71069064	     -5.06678820	      9.07092322	     27.52608145	     77.11608172	      0.37899098	     -5.21838005	      9.41462040	     24.52793313	     67.05552791
      0.05000000	     -1.28418928	     -0.18281433	      2.20375605	     -0.89452162	      1.23201684	     -0.08724542	     -4.14190911	      0.37371535	      0.84554158	      2.45979636	      0.04293155	      9.14083089	     -2.73557811	     -7.45966246	     -4.24390285	      1.87639541	      4.83296568	      1.25901039	      0.02197388	      7.31106884	     -3.96847128	     -7.45966246	     -3.84470053	      0.41668898	     -1.24914771	      0.76587787	     -5.17557252	      9.71956169	     27.55554013	     75.54183804	      0.46318745	     -5.23289425	      9.48284327	     24.47230224	     66.26146072
      0.05416670	     -1.25590635	     -0.18632473	      2.16036546	     -0.89457443	      1.23067060	     -0.08670773	     -4.19411151	      0.40087725	      0.80933790	      2.33658561	      0.04078111	      9.20241818	     -2.49542919	     -7.46857281	     -4.29701629	      1.83618287	      4.62062099	      1.20584884	      0.02104603	      7.44864848	     -3.41093188	     -7.46857281	     -3.89397067	      0.40075873	     -1.22071332	      0.89888288	     -5.16309116	      9.92000938	     27.32584746	     73.91308954	      0.52166033	     -5.20596663	      9.24707190	     24.45373782	     65.46412362
      0.05833330	     -1.21671363	     -0.18663840	      2.19415538	     -0.89399774	      1.23151320	     -0.08684949	     -4.32240549	      0.42735036	      0.91643646	      2.15837283	      0.03767071	      9.00463776	     -2.72231500	     -7.48098613	     -4.38005946	      1.80423410	      4.96330338	      1.11346992	      0.01943372	      7.20894557	     -3.67871869	     -7.48098613	     -3.95736068	      0.36091138	     -1.31679093	      0.94538623	     -5.44171221	     11.43387923	     27.54938502	     72.80560785	      0.55534373	     -5.34738201	      9.86494861	     24.50744959	     64.89526542
      0.06250000	     -1.13431931	     -0.24189475	      2.12861825	     -0.89378835	      1.23066731	     -0.08744122	     -4.43711702	      0.48592224	      0.80756795	      2.06592479	      0.03605719	      9.02539656	     -2.47217233	     -7.48635135	     -4.49406672	      1.72420810	      4.74172346	      1.03639040	      0.01808842	      7.44423284	     -3.28136862	     -7.48635135	     -4.06849070	      0.44271459	     -1.27160441	      0.99717527	     -5.42764114	     11.19511822	     27.55365295	     71.01383145	      0.50164939	     -5.32577463	      9.48310407	     24.73982857	     64.05796080
      0.06666670	     -1.20212756	     -0.27622728	      2.11007485	     -0.89537429	      1.22638739	     -0.08786446	     -4.31836554	      0.49514637	      1.06079499	      2.06556145	      0.03605085	      8.79234202	     -3.08082449	     -7.48864180	     -4.39139513	      1.69724382	      5.04489481	      0.99494599	      0.01736508	      7.41695189	     -3.79111040	     -7.48864180	     -4.01508854	      0.49769408	     -1.30320067	      1.14019923	     -5.57587701	     11.63754935	     27.43434581	     72.64265987	      0.56490443	     -5.36133042	      9.69351512	     24.64288696	     64.76106690
